<svg class="h-full" version="1.1" viewBox="0 0 100 100" xmlns="http://www.w3.org/2000/svg">
 <g fill="currentColor">
  <path d="m48.898 6.1016-13.898 13.898c-1.1992 1.1992-1.8984 2.8008-1.8984 4.5s0.69922 3.3008 1.8984 4.5l13.898 14c0.30078 0.30078 0.69922 0.39844 1.1016 0.39844 0.39844 0 0.80078-0.19922 1.1016-0.39844l13.898-13.898c2.5-2.5 2.5-6.6016 0-9.1016l-13.898-13.898c-0.60156-0.5-1.6016-0.5-2.2031 0z"/>
  <path d="m43.5 50c0-0.39844-0.19922-0.80078-0.39844-1.1016l-14-13.898c-2.5-2.5-6.6016-2.5-9.1016 0l-13.898 13.898c-0.30078 0.30078-0.39844 0.69922-0.39844 1.1016 0 0.39844 0.19922 0.80078 0.39844 1.1016l13.898 13.898c1.1992 1.1992 2.8008 1.8984 4.5 1.8984s3.3008-0.69922 4.5-1.8984l14-13.898c0.30078-0.30078 0.5-0.70312 0.5-1.1016z"/>
  <path d="m80 35c-2.5-2.5-6.6016-2.5-9.1016 0l-13.898 13.898c-0.30078 0.30078-0.39844 0.69922-0.39844 1.1016 0 0.39844 0.19922 0.80078 0.39844 1.1016l13.898 13.898c1.1992 1.1992 2.8008 1.8984 4.5 1.8984 1.6992 0 3.3008-0.69922 4.5-1.8984l13.898-13.898c0.60156-0.60156 0.60156-1.5 0-2.1016z"/>
  <path d="m51.102 57c-0.60156-0.60156-1.5-0.60156-2.1016 0l-14 13.898c-2.5 2.5-2.5 6.6016 0 9.1016l13.898 13.898c0.30078 0.30078 0.69922 0.39844 1.1016 0.39844 0.39844 0 0.80078-0.10156 1.1016-0.39844l13.898-13.898c2.5-2.5 2.5-6.6016 0-9.1016z"/>
 </g>
</svg>