<svg class="h-full" version="1.1" viewBox="0 0 100 100" xmlns="http://www.w3.org/2000/svg">
 <g fill="currentColor">
  <path d="m19.398 63.102h5.6016c0.30078 0 0.5-0.19922 0.5-0.5v-30.902c0-3.3984 2.8008-6.1992 6.1992-6.1992h30.898c0.30078 0 0.5-0.19922 0.5-0.5v-5.6016c0-4-3.1992-7.1992-7.1992-7.1992h-36.5c-4 0-7.1992 3.1992-7.1992 7.1992v36.602c0 3.8984 3.1992 7.1016 7.1992 7.1016z"/>
  <path d="m36.898 75v5.6016c0 4 3.1992 7.1992 7.1992 7.1992h36.602c4 0 7.1992-3.1992 7.1992-7.1992v-36.602c0-4-3.1992-7.1992-7.1992-7.1992h-5.6992c-0.30078 0-0.5 0.19922-0.5 0.5v30.898c0 3.3984-2.8008 6.1992-6.1992 6.1992h-30.902c-0.29688 0.10156-0.5 0.30078-0.5 0.60156z"/>
  <path d="m37.398 63.102h18.602c4 0 7.1992-3.1992 7.1992-7.1992v-18.504c0-0.30078-0.19922-0.5-0.5-0.5h-18.699c-4 0-7.1992 3.1992-7.1992 7.1992v18.602c0.097657 0.19922 0.30078 0.40234 0.59766 0.40234z"/>
 </g>
</svg>