<svg class="h-full" version="1.1" viewBox="0 0 100 100" xmlns="http://www.w3.org/2000/svg">
 <path d="m73.102 76.941c4.25 0 7.6992-3.4492 7.6992-7.7031v-22c0-5.1016-4.1367-9.2383-9.2422-9.2383h-41.82c-2.3555 0-4.293-1.8633-4.3789-4.2188 0.085937-2.5156 2.125-4.5195 4.6406-4.5625h41.559c1.7031 0 3.082 1.3789 3.082 3.082v1.0391c0 1.7031 1.3789 3.082 3.0781 3.082 1.7031 0 3.082-1.3789 3.082-3.082v-1.0391c0-5.1055-4.1367-9.2422-9.2422-9.2422h-41.82c-5.8164 0.011718-10.527 4.7266-10.539 10.543v31.02c0 6.8047 5.5156 12.32 12.32 12.32zm1.5391-17.461h-10.641c-0.84766-0.011719-1.5273-0.69531-1.5391-1.5391v-1.8008c0-0.85156 0.6875-1.5391 1.5391-1.5391h10.66zm-49.281 5.1406v-21.422c1.3711 0.63672 2.8672 0.96484 4.3789 0.96094h41.82c1.7031 0 3.082 1.3789 3.082 3.0781v1.1797l-10.641 0.003906c-4.2539 0.007813-7.6992 3.4609-7.6992 7.7188v1.8594c0.042969 4.2227 3.4727 7.6289 7.6992 7.6406h10.66v3.6016-0.003907c0 0.85156-0.69141 1.543-1.5391 1.543h-41.602c-3.4023 0-6.1602-2.7578-6.1602-6.1602z" fill="currentColor"/>
</svg>